<mxfile host="app.diagrams.net" modified="2023-06-15T00:50:19.469Z" agent="Mozilla/5.0 (Windows NT 10.0; Win64; x64) AppleWebKit/537.36 (KHTML, like Gecko) Chrome/114.0.0.0 Safari/537.36 Edg/114.0.1823.43" version="21.4.0" etag="G4dJylr9nDQzv1AyVdu2" type="github">
  <diagram name="Halaman-1" id="hD6BbreKELlEfo5RO-Q4">
    <mxGraphModel>
      <root>
        <mxCell id="0" />
        <mxCell id="1" parent="0" />
      </root>
    </mxGraphModel>
  </diagram>
</mxfile>
